HIERARCHY
ROOT joint_Root
{
	OFFSET 0.0 0.0 0.0
	CHANNELS 6 Xposition Yposition Zposition Zrotation Xrotation Yrotation 
	JOINT Hips
	{
		OFFSET -0.726466 93.3139 -2.00062
		CHANNELS 6 Xposition Yposition Zposition Zrotation Xrotation Yrotation 
		JOINT Spine
		{
			OFFSET 15.7357 0.0 0.0
			CHANNELS 6 Xposition Yposition Zposition Zrotation Xrotation Yrotation 
			JOINT Chest
			{
				OFFSET 8.98455 -0.406207 0.0
				CHANNELS 6 Xposition Yposition Zposition Zrotation Xrotation Yrotation 
				JOINT Neck
				{
					OFFSET 16.3773 0.0 0.0
					CHANNELS 6 Xposition Yposition Zposition Zrotation Xrotation Yrotation 
					JOINT Head
					{
						OFFSET 6.45672 0.0 0.0
						CHANNELS 6 Xposition Yposition Zposition Zrotation Xrotation Yrotation 
						End Site
						{
							OFFSET 0.0 0.0 0.0
						}
					}
				}
				JOINT Shoulder_L
				{
					OFFSET 12.9942 -0.242716 4.98039
					CHANNELS 6 Xposition Yposition Zposition Zrotation Xrotation Yrotation 
					JOINT UpperArm_L
					{
						OFFSET 5.34809 0.0 0.0
						CHANNELS 6 Xposition Yposition Zposition Zrotation Xrotation Yrotation 
						JOINT LowerArm_L
						{
							OFFSET 24.3286 1.87007e-05 0.0
							CHANNELS 6 Xposition Yposition Zposition Zrotation Xrotation Yrotation 
							JOINT Hand_L
							{
								OFFSET 22.2916 0.0 0.0
								CHANNELS 6 Xposition Yposition Zposition Zrotation Xrotation Yrotation 
								End Site
								{
									OFFSET 0.0 0.0 0.0
								}
							}
						}
					}
				}
				JOINT Shoulder_R
				{
					OFFSET 12.9945 -0.242716 -4.98039
					CHANNELS 6 Xposition Yposition Zposition Zrotation Xrotation Yrotation 
					JOINT UpperArm_R
					{
						OFFSET -5.34813 0.0 0.0
						CHANNELS 6 Xposition Yposition Zposition Zrotation Xrotation Yrotation 
						JOINT LowerArm_R
						{
							OFFSET -24.3289 0.000322201 0.0
							CHANNELS 6 Xposition Yposition Zposition Zrotation Xrotation Yrotation 
							JOINT Hand_R
							{
								OFFSET -22.2915 -0.000108084 0.0
								CHANNELS 6 Xposition Yposition Zposition Zrotation Xrotation Yrotation 
								End Site
								{
									OFFSET 0.0 0.0 0.0
								}
							}
						}
					}
				}
			}
		}
		JOINT UpperLeg_L
		{
			OFFSET -2.19248 -6.46944 0.0
			CHANNELS 6 Xposition Yposition Zposition Zrotation Xrotation Yrotation 
			JOINT LowerLeg_L
			{
				OFFSET 39.0811 0.0 -1.23785e-05
				CHANNELS 6 Xposition Yposition Zposition Zrotation Xrotation Yrotation 
				JOINT Foot_L
				{
					OFFSET 40.9854 0.0 -1.26872e-05
					CHANNELS 6 Xposition Yposition Zposition Zrotation Xrotation Yrotation 
					JOINT Toes_L
					{
						OFFSET 11.7543 0.0 0.0
						CHANNELS 6 Xposition Yposition Zposition Zrotation Xrotation Yrotation 
						End Site
						{
							OFFSET 0.0 0.0 0.0
						}
					}
				}
			}
		}
		JOINT UpperLeg_R
		{
			OFFSET -2.19251 6.46944 0.0
			CHANNELS 6 Xposition Yposition Zposition Zrotation Xrotation Yrotation 
			JOINT LowerLeg_R
			{
				OFFSET -39.0811 -0.00228153 -0.0401928
				CHANNELS 6 Xposition Yposition Zposition Zrotation Xrotation Yrotation 
				JOINT Foot_R
				{
					OFFSET -40.9854 0.0 0.0
					CHANNELS 6 Xposition Yposition Zposition Zrotation Xrotation Yrotation 
					JOINT Toes_R
					{
						OFFSET -11.7543 0.0 0.0
						CHANNELS 6 Xposition Yposition Zposition Zrotation Xrotation Yrotation 
						End Site
						{
							OFFSET 0.0 0.0 0.0
						}
					}
				}
			}
		}
	}
}
MOTION
Frames:	9
Frame Time:	0.0333333
0.000000 0.000000 0.000000 0.000000 0.000000 -0.000000 2.754670 88.769800 426.266000 -83.700100 -10.041300 166.724000 15.735700 0.000005 -0.000001 60.764300 81.761900 -57.418900 8.984550 -0.406207 -0.000000 6.908160 -8.045920 7.178910 16.377300 -0.000001 -0.000001 -2.278540 -3.132660 0.691816 6.456720 -0.000001 -0.000000 -2.613040 1.896470 1.349210 12.994200 -0.242716 4.980390 -87.687100 -8.569170 -74.833300 5.348090 -0.000007 -0.000001 -72.995000 24.120500 -33.507400 24.328600 0.000019 0.000005 -12.417600 5.026830 -111.698000 22.291600 -0.000001 0.000005 11.960900 5.671900 -17.687900 12.994500 -0.242716 -4.980390 90.314100 -0.759123 -67.537800 -5.348130 -0.000001 -0.000004 -73.790600 38.662800 20.661300 -24.328900 0.000322 -0.000009 -1.710420 -0.438362 -75.629900 -22.291500 -0.000108 -0.000004 11.119900 5.642420 -14.322100 -2.192480 -6.469440 -0.000000 -172.967000 -1.624140 -3.286240 39.081100 -0.000007 -0.000012 0.006036 -0.012253 26.222900 40.985400 -0.000006 -0.000013 3.284670 0.291659 -69.037200 11.754300 -0.000000 0.000003 -0.069027 -0.360069 -31.482500 -2.192510 6.469440 -0.000001 -168.698000 3.797730 135.288000 -39.081100 -0.002282 -0.040193 -0.065598 0.019652 74.024500 -40.985400 0.000008 0.000006 9.625260 -10.372600 -57.779400 -11.754300 -0.000006 -0.000006 -0.029496 -0.215143 -25.385700
0.000000 0.000000 0.000000 0.000000 0.000000 -0.000000 3.035870 91.655400 419.218000 -82.851600 -10.511800 165.435000 15.735700 0.000005 -0.000001 56.001500 81.973400 -52.002900 8.984550 -0.406207 -0.000000 5.928870 -9.018150 8.469420 16.377300 -0.000001 -0.000001 -1.708670 -2.871550 0.829269 6.456720 -0.000001 -0.000000 -1.993780 2.582300 1.209360 12.994200 -0.242716 4.980390 -87.141600 -10.589800 -74.800000 5.348090 -0.000007 -0.000001 -72.792800 24.172000 -33.650900 24.328600 0.000019 0.000005 -10.971100 5.525110 -116.414000 22.291600 -0.000001 0.000005 10.435300 5.664950 -16.607600 12.994500 -0.242716 -4.980390 91.298600 -3.057880 -66.976900 -5.348130 -0.000001 -0.000004 -76.382900 38.104300 24.237700 -24.328900 0.000322 -0.000009 -0.163242 -0.033398 -78.428900 -22.291500 -0.000108 -0.000004 9.648930 5.637930 -13.953700 -2.192480 -6.469440 -0.000000 -170.320000 -6.780780 -0.718649 39.081100 -0.000007 -0.000012 0.007732 -0.020073 21.068400 40.985400 -0.000006 -0.000013 2.448670 5.180330 -50.361600 11.754300 -0.000000 0.000003 -0.168773 -0.590537 -41.677300 -2.192510 6.469440 -0.000001 -167.841000 3.719410 135.618000 -39.081100 -0.002282 -0.040193 -0.007102 0.006568 57.515900 -40.985400 0.000008 0.000006 8.519450 -7.640680 -60.061200 -11.754300 -0.000006 -0.000006 -0.029871 -0.216872 -25.457500
0.000000 0.000000 0.000000 0.000000 0.000000 -0.000000 2.956320 93.340300 411.922000 -84.220000 -9.620480 165.196000 15.735700 0.000005 -0.000001 54.076500 81.938800 -50.315900 8.984550 -0.406207 -0.000000 5.675630 -9.505640 7.998960 16.377300 -0.000001 -0.000001 -1.294130 -2.388200 0.755970 6.456720 -0.000001 -0.000000 -1.743650 3.001870 0.960223 12.994200 -0.242716 4.980390 -86.759400 -11.955900 -74.713200 5.348090 -0.000007 -0.000001 -71.926900 25.009800 -32.613400 24.328600 0.000019 0.000005 -10.185200 5.768750 -119.225000 22.291600 -0.000001 0.000005 8.932640 5.654520 -15.461900 12.994500 -0.242716 -4.980390 92.344400 -5.669460 -67.486600 -5.348130 -0.000001 -0.000004 -79.895500 35.999300 26.665300 -24.328900 0.000322 -0.000009 0.708412 0.114995 -80.812900 -22.291500 -0.000108 -0.000004 9.162560 5.631020 -13.412200 -2.192480 -6.469440 -0.000000 -170.120000 -9.929990 2.060370 39.081100 -0.000007 -0.000012 0.027120 -0.077208 19.354200 40.985400 -0.000006 -0.000013 0.577385 7.088530 -37.946200 11.754300 -0.000000 0.000003 -0.036684 -0.246627 -26.698800 -2.192510 6.469440 -0.000001 -169.371000 4.716690 139.053000 -39.081100 -0.002282 -0.040193 0.012537 -0.011283 39.366100 -40.985400 0.000008 0.000006 6.007640 -3.822670 -62.137600 -11.754300 -0.000006 -0.000006 -0.031218 -0.222994 -25.711600
0.000000 0.000000 0.000000 0.000000 0.000000 -0.000000 2.614780 93.478600 404.150000 -86.207500 -9.009520 165.734000 15.735700 0.000005 -0.000001 52.559800 81.802000 -49.251800 8.984550 -0.406207 -0.000000 5.618410 -10.006900 7.114200 16.377300 -0.000001 -0.000001 -1.282700 -1.809020 0.569925 6.456720 -0.000001 -0.000000 -0.704102 3.115850 0.597045 12.994200 -0.242716 4.980390 -86.536200 -12.990300 -74.929200 5.348090 -0.000007 -0.000001 -71.154200 27.141800 -29.867400 24.328600 0.000019 0.000005 -10.700900 6.215760 -119.811000 22.291600 -0.000001 0.000005 9.681750 5.658520 -15.884000 12.994500 -0.242716 -4.980390 93.269100 -8.320410 -68.459400 -5.348130 -0.000001 -0.000004 -83.308000 34.004100 28.106600 -24.328900 0.000322 -0.000009 0.427241 0.051035 -83.281500 -22.291500 -0.000108 -0.000004 8.506340 5.621350 -12.713400 -2.192480 -6.469440 -0.000000 -172.078000 -7.009160 3.556440 39.081100 -0.000007 -0.000012 0.036934 -0.079634 24.881800 40.985400 -0.000006 -0.000013 2.046540 -0.760126 -36.323300 11.754300 -0.000000 0.000003 -0.007650 -0.085157 -20.044100 -2.192510 6.469440 -0.000001 -170.675000 7.717670 143.012000 -39.081100 -0.002282 -0.040193 0.008059 -0.010402 24.522700 -40.985400 0.000008 0.000006 3.264510 0.269674 -63.945300 -11.754300 -0.000006 -0.000006 -0.033202 -0.231779 -26.076700
0.000000 0.000000 0.000000 0.000000 0.000000 -0.000000 2.317100 92.566600 396.079000 -88.320600 -7.905880 167.697000 15.735700 0.000005 -0.000001 55.435200 81.473500 -52.801200 8.984550 -0.406207 -0.000000 6.577990 -9.673410 5.829320 16.377300 -0.000001 -0.000001 -1.218800 -1.831780 0.550419 6.456720 -0.000001 -0.000000 -1.054700 3.134820 0.572124 12.994200 -0.242716 4.980390 -86.584500 -12.998900 -75.139900 5.348090 -0.000007 -0.000001 -70.775200 30.151700 -26.166900 24.328600 0.000019 0.000005 -10.204400 5.467360 -117.888000 22.291600 -0.000001 0.000005 10.321000 5.664110 -16.555300 12.994500 -0.242716 -4.980390 93.330300 -8.726580 -69.016400 -5.348130 -0.000001 -0.000004 -83.666600 33.725400 26.918400 -24.328900 0.000322 -0.000009 -0.325289 -0.021988 -86.038900 -22.291500 -0.000108 -0.000004 8.105040 5.615490 -12.314500 -2.192480 -6.469440 -0.000000 -175.226000 -2.994970 4.731210 39.081100 -0.000007 -0.000012 0.029076 -0.040559 35.635200 40.985400 -0.000006 -0.000013 3.945920 -7.128920 -37.294200 11.754300 -0.000000 0.000003 -0.007274 -0.082005 -19.915400 -2.192510 6.469440 -0.000001 -171.598000 11.298000 145.972000 -39.081100 -0.002282 -0.040193 0.000091 0.009197 19.360200 -40.985400 0.000008 0.000006 0.440333 0.618767 -65.279800 -11.754300 -0.000006 -0.000006 -0.032141 -0.227114 -25.882800
0.000000 0.000000 0.000000 0.000000 0.000000 -0.000000 2.252900 90.896600 388.084000 -88.310400 -6.284850 169.793000 15.735700 0.000005 -0.000001 62.785600 81.266000 -60.195000 8.984550 -0.406207 -0.000000 8.012330 -7.949540 5.740280 16.377300 -0.000001 -0.000001 -1.220780 -2.068630 0.612980 6.456720 -0.000001 -0.000000 -2.311540 2.885580 0.456570 12.994200 -0.242716 4.980390 -86.876400 -11.843000 -75.109700 5.348090 -0.000007 -0.000001 -70.831000 33.232200 -21.905500 24.328600 0.000019 0.000005 -9.125770 3.832570 -112.589000 22.291600 -0.000001 0.000005 9.835160 5.662720 -16.374400 12.994500 -0.242716 -4.980390 92.626000 -7.044240 -69.495300 -5.348130 -0.000001 -0.000004 -80.561000 34.526100 22.203100 -24.328900 0.000322 -0.000009 -1.883640 -0.034662 -88.911200 -22.291500 -0.000108 -0.000004 7.739900 5.611950 -12.083900 -2.192480 -6.469440 -0.000000 -176.681000 -1.252970 2.702870 39.081100 -0.000007 -0.000012 -0.027162 0.021544 51.584700 40.985400 -0.000006 -0.000013 5.461730 -7.832460 -37.594500 11.754300 -0.000000 0.000003 -0.007321 -0.082404 -19.931700 -2.192510 6.469440 -0.000001 -171.031000 11.202500 146.074000 -39.081100 -0.002282 -0.040193 0.094481 -0.185553 26.167300 -40.985400 0.000008 0.000006 5.324980 -3.104500 -64.486300 -11.754300 -0.000006 -0.000006 -0.031653 -0.224944 -25.792600
0.000000 0.000000 0.000000 0.000000 0.000000 -0.000000 2.564200 88.056500 380.359000 -86.409900 -5.226460 171.557000 15.735700 0.000005 -0.000001 70.329500 81.243700 -67.030100 8.984550 -0.406207 -0.000000 8.936560 -5.831210 7.053910 16.377300 -0.000001 -0.000001 -1.162400 -2.013900 0.150474 6.456720 -0.000001 -0.000000 -2.765690 2.180570 0.222609 12.994200 -0.242716 4.980390 -87.291100 -10.053400 -74.833700 5.348090 -0.000007 -0.000001 -71.174100 36.383400 -16.463000 24.328600 0.000019 0.000005 -8.583120 2.173410 -104.099000 22.291600 -0.000001 0.000005 8.886630 5.661370 -16.206700 12.994500 -0.242716 -4.980390 91.673700 -4.689470 -70.335400 -5.348130 -0.000001 -0.000004 -75.350100 35.304700 15.268500 -24.328900 0.000322 -0.000009 -5.032420 0.209603 -92.364000 -22.291500 -0.000108 -0.000004 8.026900 5.619150 -12.561600 -2.192480 -6.469440 -0.000000 -174.985000 -1.761110 -3.901520 39.081100 -0.000007 -0.000012 -0.090955 0.028723 72.478200 40.985400 -0.000006 -0.000013 4.620930 -7.902270 -38.809700 11.754300 -0.000000 0.000003 -0.008215 -0.089792 -20.233400 -2.192510 6.469440 -0.000001 -170.177000 9.322390 144.585000 -39.081100 -0.002282 -0.040193 -0.133989 0.160208 40.590000 -40.985400 0.000008 0.000006 4.584750 -4.256610 -65.164900 -11.754300 -0.000006 -0.000006 -0.026287 -0.199911 -24.754700
0.000000 0.000000 0.000000 0.000000 0.000000 -0.000000 2.743640 84.896700 373.180000 -85.614000 -3.340920 173.976000 15.735700 0.000005 -0.000001 78.472800 80.825800 -74.941000 8.984550 -0.406207 -0.000000 10.347300 -3.562620 7.383740 16.377300 -0.000001 -0.000001 -1.814990 -1.454620 -0.269519 6.456720 -0.000001 -0.000000 -2.460430 1.299770 -0.129651 12.994200 -0.242716 4.980390 -87.657300 -8.195440 -73.985800 5.348090 -0.000007 -0.000001 -71.732600 38.852200 -10.454100 24.328600 0.000019 0.000005 -8.312590 0.326655 -92.232700 22.291600 -0.000001 0.000005 4.820790 5.652680 -15.216000 12.994500 -0.242716 -4.980390 90.529700 -1.514820 -70.728400 -5.348130 -0.000001 -0.000004 -66.797400 36.424300 3.484970 -24.328900 0.000322 -0.000009 -6.954920 0.682568 -95.575300 -22.291500 -0.000108 -0.000004 9.098680 5.621540 -12.720000 -2.192480 -6.469440 -0.000000 -174.805000 -2.955190 -11.925000 39.081100 -0.000007 -0.000012 -0.208955 -0.008350 92.290700 40.985400 -0.000006 -0.000013 5.665780 -7.946610 -39.865800 11.754300 -0.000000 0.000003 -0.008370 -0.091034 -20.284100 -2.192510 6.469440 -0.000001 -169.905000 6.926980 146.179000 -39.081100 -0.002282 -0.040193 -0.211109 0.161488 53.005600 -40.985400 0.000008 0.000006 6.609330 -6.645920 -76.196000 -11.754300 -0.000006 -0.000006 -0.007691 -0.085489 -20.054000
0.000000 0.000000 0.000000 0.000000 0.000000 -0.000000 2.985760 82.719700 366.314000 -84.954400 -2.194870 176.345000 15.735700 0.000005 -0.000001 83.147000 80.122800 -79.399700 8.984550 -0.406207 -0.000000 11.937400 -2.200380 7.723640 16.377300 -0.000001 -0.000001 -1.778900 -0.844506 -0.291832 6.456720 -0.000001 -0.000000 -2.485960 1.091430 -1.127050 12.994200 -0.242716 4.980390 -88.102400 -6.232880 -73.028300 5.348090 -0.000007 -0.000001 -72.491500 39.739100 -3.620880 24.328600 0.000019 0.000005 -4.239060 -0.863793 -78.358600 22.291600 -0.000001 0.000005 0.697878 5.650960 -15.114700 12.994500 -0.242716 -4.980390 89.462400 1.577090 -71.172900 -5.348130 -0.000001 -0.000004 -55.734600 36.928100 -14.116500 -24.328900 0.000322 -0.000009 -7.003320 0.911863 -97.380100 -22.291500 -0.000108 -0.000004 11.092300 5.629250 -13.272600 -2.192480 -6.469440 -0.000000 -175.013000 -2.880820 -21.554500 39.081100 -0.000007 -0.000012 -0.440191 -0.136210 107.195000 40.985400 -0.000006 -0.000013 8.575320 -5.643630 -40.702700 11.754300 -0.000000 0.000003 -0.008544 -0.092427 -20.341100 -2.192510 6.469440 -0.000001 -169.533000 10.410600 151.518000 -39.081100 -0.002282 -0.040193 -0.113363 0.071658 58.420800 -40.985400 0.000008 0.000006 9.047160 -4.963750 -84.802200 -11.754300 -0.000006 -0.000006 -0.005699 -0.068074 -19.343400
